<mxfile host="app.diagrams.net" modified="2020-07-21T13:50:55.955Z" agent="5.0 (X11; Linux x86_64) AppleWebKit/537.36 (KHTML, like Gecko) Chrome/83.0.4103.116 Safari/537.36" etag="DyiMBD3qxw0WK9qapqUr" version="13.4.9" type="github">
  <diagram id="Xss0RzR-oct2uypztryY" name="Page-1">
    <mxGraphModel dx="868" dy="494" grid="1" gridSize="10" guides="1" tooltips="1" connect="1" arrows="1" fold="1" page="1" pageScale="1" pageWidth="827" pageHeight="1169" math="0" shadow="0">
      <root>
        <mxCell id="0" />
        <mxCell id="1" parent="0" />
        <mxCell id="b4HhWst4_7GAa5L8suoH-1" value="" style="rounded=0;whiteSpace=wrap;html=1;" vertex="1" parent="1">
          <mxGeometry x="120" y="80" width="520" height="520" as="geometry" />
        </mxCell>
        <mxCell id="b4HhWst4_7GAa5L8suoH-5" value="" style="endArrow=none;html=1;entryX=1;entryY=0.846;entryDx=0;entryDy=0;entryPerimeter=0;exitX=-0.004;exitY=0.849;exitDx=0;exitDy=0;exitPerimeter=0;" edge="1" parent="1" source="b4HhWst4_7GAa5L8suoH-1" target="b4HhWst4_7GAa5L8suoH-1">
          <mxGeometry width="50" height="50" relative="1" as="geometry">
            <mxPoint x="110" y="520" as="sourcePoint" />
            <mxPoint x="679" y="520" as="targetPoint" />
          </mxGeometry>
        </mxCell>
        <mxCell id="b4HhWst4_7GAa5L8suoH-8" value="" style="endArrow=none;html=1;entryX=0.154;entryY=0.003;entryDx=0;entryDy=0;entryPerimeter=0;exitX=0.159;exitY=1.007;exitDx=0;exitDy=0;exitPerimeter=0;" edge="1" parent="1" source="b4HhWst4_7GAa5L8suoH-1" target="b4HhWst4_7GAa5L8suoH-1">
          <mxGeometry width="50" height="50" relative="1" as="geometry">
            <mxPoint x="250" y="240" as="sourcePoint" />
            <mxPoint x="300" y="190" as="targetPoint" />
          </mxGeometry>
        </mxCell>
        <mxCell id="b4HhWst4_7GAa5L8suoH-9" value="" style="endArrow=none;html=1;entryX=0.003;entryY=0.15;entryDx=0;entryDy=0;entryPerimeter=0;" edge="1" parent="1" target="b4HhWst4_7GAa5L8suoH-1">
          <mxGeometry width="50" height="50" relative="1" as="geometry">
            <mxPoint x="642" y="158" as="sourcePoint" />
            <mxPoint x="510" y="290" as="targetPoint" />
          </mxGeometry>
        </mxCell>
        <mxCell id="b4HhWst4_7GAa5L8suoH-10" value="" style="endArrow=none;html=1;entryX=0.849;entryY=0;entryDx=0;entryDy=0;entryPerimeter=0;exitX=0.846;exitY=1.005;exitDx=0;exitDy=0;exitPerimeter=0;" edge="1" parent="1" source="b4HhWst4_7GAa5L8suoH-1" target="b4HhWst4_7GAa5L8suoH-1">
          <mxGeometry width="50" height="50" relative="1" as="geometry">
            <mxPoint x="460" y="340" as="sourcePoint" />
            <mxPoint x="510" y="290" as="targetPoint" />
          </mxGeometry>
        </mxCell>
        <mxCell id="b4HhWst4_7GAa5L8suoH-11" value="" style="endArrow=none;html=1;entryX=1;entryY=0.231;entryDx=0;entryDy=0;entryPerimeter=0;" edge="1" parent="1" target="b4HhWst4_7GAa5L8suoH-1">
          <mxGeometry width="50" height="50" relative="1" as="geometry">
            <mxPoint x="560" y="200" as="sourcePoint" />
            <mxPoint x="550" y="200" as="targetPoint" />
          </mxGeometry>
        </mxCell>
        <mxCell id="b4HhWst4_7GAa5L8suoH-13" value="" style="endArrow=none;html=1;entryX=1;entryY=0.231;entryDx=0;entryDy=0;entryPerimeter=0;" edge="1" parent="1">
          <mxGeometry width="50" height="50" relative="1" as="geometry">
            <mxPoint x="560" y="240" as="sourcePoint" />
            <mxPoint x="640" y="240.12" as="targetPoint" />
          </mxGeometry>
        </mxCell>
        <mxCell id="b4HhWst4_7GAa5L8suoH-14" value="" style="endArrow=none;html=1;entryX=1;entryY=0.231;entryDx=0;entryDy=0;entryPerimeter=0;" edge="1" parent="1">
          <mxGeometry width="50" height="50" relative="1" as="geometry">
            <mxPoint x="560" y="280" as="sourcePoint" />
            <mxPoint x="640" y="280.12" as="targetPoint" />
          </mxGeometry>
        </mxCell>
        <mxCell id="b4HhWst4_7GAa5L8suoH-15" value="" style="endArrow=none;html=1;entryX=1;entryY=0.231;entryDx=0;entryDy=0;entryPerimeter=0;" edge="1" parent="1">
          <mxGeometry width="50" height="50" relative="1" as="geometry">
            <mxPoint x="560" y="320" as="sourcePoint" />
            <mxPoint x="640" y="320.12" as="targetPoint" />
          </mxGeometry>
        </mxCell>
        <mxCell id="b4HhWst4_7GAa5L8suoH-16" value="" style="endArrow=none;html=1;entryX=1;entryY=0.231;entryDx=0;entryDy=0;entryPerimeter=0;" edge="1" parent="1">
          <mxGeometry width="50" height="50" relative="1" as="geometry">
            <mxPoint x="560" y="360" as="sourcePoint" />
            <mxPoint x="640" y="360.12" as="targetPoint" />
          </mxGeometry>
        </mxCell>
        <mxCell id="b4HhWst4_7GAa5L8suoH-17" value="" style="endArrow=none;html=1;entryX=1;entryY=0.231;entryDx=0;entryDy=0;entryPerimeter=0;" edge="1" parent="1">
          <mxGeometry width="50" height="50" relative="1" as="geometry">
            <mxPoint x="560" y="400" as="sourcePoint" />
            <mxPoint x="640" y="400.12" as="targetPoint" />
          </mxGeometry>
        </mxCell>
        <mxCell id="b4HhWst4_7GAa5L8suoH-18" value="" style="endArrow=none;html=1;entryX=1;entryY=0.231;entryDx=0;entryDy=0;entryPerimeter=0;" edge="1" parent="1">
          <mxGeometry width="50" height="50" relative="1" as="geometry">
            <mxPoint x="560" y="440" as="sourcePoint" />
            <mxPoint x="640" y="440.12" as="targetPoint" />
          </mxGeometry>
        </mxCell>
        <mxCell id="b4HhWst4_7GAa5L8suoH-19" value="" style="endArrow=none;html=1;entryX=1;entryY=0.231;entryDx=0;entryDy=0;entryPerimeter=0;" edge="1" parent="1">
          <mxGeometry width="50" height="50" relative="1" as="geometry">
            <mxPoint x="560" y="480" as="sourcePoint" />
            <mxPoint x="640" y="480.12" as="targetPoint" />
          </mxGeometry>
        </mxCell>
        <mxCell id="b4HhWst4_7GAa5L8suoH-20" value="" style="endArrow=none;html=1;entryX=1;entryY=0.231;entryDx=0;entryDy=0;entryPerimeter=0;" edge="1" parent="1">
          <mxGeometry width="50" height="50" relative="1" as="geometry">
            <mxPoint x="120" y="200" as="sourcePoint" />
            <mxPoint x="200" y="200.12" as="targetPoint" />
          </mxGeometry>
        </mxCell>
        <mxCell id="b4HhWst4_7GAa5L8suoH-21" value="" style="endArrow=none;html=1;entryX=1;entryY=0.231;entryDx=0;entryDy=0;entryPerimeter=0;" edge="1" parent="1">
          <mxGeometry width="50" height="50" relative="1" as="geometry">
            <mxPoint x="120" y="240" as="sourcePoint" />
            <mxPoint x="200" y="240.12" as="targetPoint" />
          </mxGeometry>
        </mxCell>
        <mxCell id="b4HhWst4_7GAa5L8suoH-22" value="" style="endArrow=none;html=1;entryX=1;entryY=0.231;entryDx=0;entryDy=0;entryPerimeter=0;" edge="1" parent="1">
          <mxGeometry width="50" height="50" relative="1" as="geometry">
            <mxPoint x="120" y="280" as="sourcePoint" />
            <mxPoint x="200" y="280.12" as="targetPoint" />
          </mxGeometry>
        </mxCell>
        <mxCell id="b4HhWst4_7GAa5L8suoH-23" value="" style="endArrow=none;html=1;entryX=1;entryY=0.231;entryDx=0;entryDy=0;entryPerimeter=0;" edge="1" parent="1">
          <mxGeometry width="50" height="50" relative="1" as="geometry">
            <mxPoint x="120" y="320" as="sourcePoint" />
            <mxPoint x="200" y="320.12" as="targetPoint" />
          </mxGeometry>
        </mxCell>
        <mxCell id="b4HhWst4_7GAa5L8suoH-24" value="" style="endArrow=none;html=1;entryX=1;entryY=0.231;entryDx=0;entryDy=0;entryPerimeter=0;" edge="1" parent="1">
          <mxGeometry width="50" height="50" relative="1" as="geometry">
            <mxPoint x="120" y="360" as="sourcePoint" />
            <mxPoint x="200" y="360.12" as="targetPoint" />
          </mxGeometry>
        </mxCell>
        <mxCell id="b4HhWst4_7GAa5L8suoH-25" value="" style="endArrow=none;html=1;entryX=1;entryY=0.231;entryDx=0;entryDy=0;entryPerimeter=0;" edge="1" parent="1">
          <mxGeometry width="50" height="50" relative="1" as="geometry">
            <mxPoint x="120" y="400" as="sourcePoint" />
            <mxPoint x="200" y="400.12" as="targetPoint" />
          </mxGeometry>
        </mxCell>
        <mxCell id="b4HhWst4_7GAa5L8suoH-26" value="" style="endArrow=none;html=1;entryX=1;entryY=0.231;entryDx=0;entryDy=0;entryPerimeter=0;" edge="1" parent="1">
          <mxGeometry width="50" height="50" relative="1" as="geometry">
            <mxPoint x="120" y="440" as="sourcePoint" />
            <mxPoint x="200" y="440.12" as="targetPoint" />
          </mxGeometry>
        </mxCell>
        <mxCell id="b4HhWst4_7GAa5L8suoH-27" value="" style="endArrow=none;html=1;entryX=1;entryY=0.231;entryDx=0;entryDy=0;entryPerimeter=0;" edge="1" parent="1">
          <mxGeometry width="50" height="50" relative="1" as="geometry">
            <mxPoint x="120" y="480" as="sourcePoint" />
            <mxPoint x="200" y="480.12" as="targetPoint" />
          </mxGeometry>
        </mxCell>
        <mxCell id="b4HhWst4_7GAa5L8suoH-28" value="" style="endArrow=none;html=1;entryX=0.229;entryY=-0.002;entryDx=0;entryDy=0;entryPerimeter=0;" edge="1" parent="1" target="b4HhWst4_7GAa5L8suoH-1">
          <mxGeometry width="50" height="50" relative="1" as="geometry">
            <mxPoint x="239" y="160" as="sourcePoint" />
            <mxPoint x="270" y="110" as="targetPoint" />
          </mxGeometry>
        </mxCell>
        <mxCell id="b4HhWst4_7GAa5L8suoH-29" value="" style="endArrow=none;html=1;entryX=0.229;entryY=-0.002;entryDx=0;entryDy=0;entryPerimeter=0;" edge="1" parent="1">
          <mxGeometry width="50" height="50" relative="1" as="geometry">
            <mxPoint x="280" y="161.04" as="sourcePoint" />
            <mxPoint x="280.0799999999999" y="80.00000000000003" as="targetPoint" />
          </mxGeometry>
        </mxCell>
        <mxCell id="b4HhWst4_7GAa5L8suoH-30" value="" style="endArrow=none;html=1;entryX=0.229;entryY=-0.002;entryDx=0;entryDy=0;entryPerimeter=0;" edge="1" parent="1">
          <mxGeometry width="50" height="50" relative="1" as="geometry">
            <mxPoint x="320" y="160" as="sourcePoint" />
            <mxPoint x="320.0799999999999" y="80" as="targetPoint" />
          </mxGeometry>
        </mxCell>
        <mxCell id="b4HhWst4_7GAa5L8suoH-32" value="" style="endArrow=none;html=1;entryX=0.229;entryY=-0.002;entryDx=0;entryDy=0;entryPerimeter=0;" edge="1" parent="1">
          <mxGeometry width="50" height="50" relative="1" as="geometry">
            <mxPoint x="360" y="160" as="sourcePoint" />
            <mxPoint x="360.0799999999999" y="80" as="targetPoint" />
          </mxGeometry>
        </mxCell>
        <mxCell id="b4HhWst4_7GAa5L8suoH-33" value="" style="endArrow=none;html=1;entryX=0.229;entryY=-0.002;entryDx=0;entryDy=0;entryPerimeter=0;" edge="1" parent="1">
          <mxGeometry width="50" height="50" relative="1" as="geometry">
            <mxPoint x="400" y="160" as="sourcePoint" />
            <mxPoint x="400.0799999999999" y="80" as="targetPoint" />
          </mxGeometry>
        </mxCell>
        <mxCell id="b4HhWst4_7GAa5L8suoH-34" value="" style="endArrow=none;html=1;entryX=0.229;entryY=-0.002;entryDx=0;entryDy=0;entryPerimeter=0;" edge="1" parent="1">
          <mxGeometry width="50" height="50" relative="1" as="geometry">
            <mxPoint x="440" y="160" as="sourcePoint" />
            <mxPoint x="440.0799999999999" y="80" as="targetPoint" />
          </mxGeometry>
        </mxCell>
        <mxCell id="b4HhWst4_7GAa5L8suoH-35" value="" style="endArrow=none;html=1;entryX=0.229;entryY=-0.002;entryDx=0;entryDy=0;entryPerimeter=0;" edge="1" parent="1">
          <mxGeometry width="50" height="50" relative="1" as="geometry">
            <mxPoint x="480" y="160" as="sourcePoint" />
            <mxPoint x="480.0799999999999" y="80" as="targetPoint" />
          </mxGeometry>
        </mxCell>
        <mxCell id="b4HhWst4_7GAa5L8suoH-36" value="" style="endArrow=none;html=1;entryX=0.229;entryY=-0.002;entryDx=0;entryDy=0;entryPerimeter=0;" edge="1" parent="1">
          <mxGeometry width="50" height="50" relative="1" as="geometry">
            <mxPoint x="520" y="160" as="sourcePoint" />
            <mxPoint x="520.0799999999999" y="80" as="targetPoint" />
          </mxGeometry>
        </mxCell>
        <mxCell id="b4HhWst4_7GAa5L8suoH-37" value="" style="endArrow=none;html=1;entryX=0.229;entryY=-0.002;entryDx=0;entryDy=0;entryPerimeter=0;" edge="1" parent="1">
          <mxGeometry width="50" height="50" relative="1" as="geometry">
            <mxPoint x="240" y="600" as="sourcePoint" />
            <mxPoint x="240.07999999999993" y="520" as="targetPoint" />
          </mxGeometry>
        </mxCell>
        <mxCell id="b4HhWst4_7GAa5L8suoH-38" value="" style="endArrow=none;html=1;entryX=0.229;entryY=-0.002;entryDx=0;entryDy=0;entryPerimeter=0;" edge="1" parent="1">
          <mxGeometry width="50" height="50" relative="1" as="geometry">
            <mxPoint x="280" y="600" as="sourcePoint" />
            <mxPoint x="280.0799999999999" y="520" as="targetPoint" />
          </mxGeometry>
        </mxCell>
        <mxCell id="b4HhWst4_7GAa5L8suoH-39" value="" style="endArrow=none;html=1;entryX=0.229;entryY=-0.002;entryDx=0;entryDy=0;entryPerimeter=0;" edge="1" parent="1">
          <mxGeometry width="50" height="50" relative="1" as="geometry">
            <mxPoint x="320" y="600" as="sourcePoint" />
            <mxPoint x="320.0799999999999" y="520" as="targetPoint" />
          </mxGeometry>
        </mxCell>
        <mxCell id="b4HhWst4_7GAa5L8suoH-40" value="" style="endArrow=none;html=1;entryX=0.229;entryY=-0.002;entryDx=0;entryDy=0;entryPerimeter=0;" edge="1" parent="1">
          <mxGeometry width="50" height="50" relative="1" as="geometry">
            <mxPoint x="360" y="600" as="sourcePoint" />
            <mxPoint x="360.0799999999999" y="520" as="targetPoint" />
          </mxGeometry>
        </mxCell>
        <mxCell id="b4HhWst4_7GAa5L8suoH-41" value="" style="endArrow=none;html=1;entryX=0.229;entryY=-0.002;entryDx=0;entryDy=0;entryPerimeter=0;" edge="1" parent="1">
          <mxGeometry width="50" height="50" relative="1" as="geometry">
            <mxPoint x="400" y="600" as="sourcePoint" />
            <mxPoint x="400.0799999999999" y="520" as="targetPoint" />
          </mxGeometry>
        </mxCell>
        <mxCell id="b4HhWst4_7GAa5L8suoH-42" value="" style="endArrow=none;html=1;entryX=0.229;entryY=-0.002;entryDx=0;entryDy=0;entryPerimeter=0;" edge="1" parent="1">
          <mxGeometry width="50" height="50" relative="1" as="geometry">
            <mxPoint x="440" y="600" as="sourcePoint" />
            <mxPoint x="440.0799999999999" y="520" as="targetPoint" />
          </mxGeometry>
        </mxCell>
        <mxCell id="b4HhWst4_7GAa5L8suoH-43" value="" style="endArrow=none;html=1;entryX=0.229;entryY=-0.002;entryDx=0;entryDy=0;entryPerimeter=0;" edge="1" parent="1">
          <mxGeometry width="50" height="50" relative="1" as="geometry">
            <mxPoint x="480" y="600" as="sourcePoint" />
            <mxPoint x="480.0799999999999" y="520" as="targetPoint" />
          </mxGeometry>
        </mxCell>
        <mxCell id="b4HhWst4_7GAa5L8suoH-44" value="" style="endArrow=none;html=1;entryX=0.229;entryY=-0.002;entryDx=0;entryDy=0;entryPerimeter=0;" edge="1" parent="1">
          <mxGeometry width="50" height="50" relative="1" as="geometry">
            <mxPoint x="520" y="600" as="sourcePoint" />
            <mxPoint x="520.0799999999999" y="520" as="targetPoint" />
          </mxGeometry>
        </mxCell>
        <mxCell id="b4HhWst4_7GAa5L8suoH-45" value="Start" style="text;html=1;strokeColor=none;fillColor=none;align=center;verticalAlign=middle;whiteSpace=wrap;rounded=0;" vertex="1" parent="1">
          <mxGeometry x="120" y="80" width="80" height="80" as="geometry" />
        </mxCell>
        <mxCell id="b4HhWst4_7GAa5L8suoH-46" value="Airport" style="text;html=1;strokeColor=none;fillColor=none;align=center;verticalAlign=middle;whiteSpace=wrap;rounded=0;" vertex="1" parent="1">
          <mxGeometry x="360" y="80" width="40" height="80" as="geometry" />
        </mxCell>
        <mxCell id="b4HhWst4_7GAa5L8suoH-47" value="Airport" style="text;html=1;strokeColor=none;fillColor=none;align=center;verticalAlign=middle;whiteSpace=wrap;rounded=0;" vertex="1" parent="1">
          <mxGeometry x="560" y="320" width="80" height="40" as="geometry" />
        </mxCell>
        <mxCell id="b4HhWst4_7GAa5L8suoH-48" value="Airport" style="text;html=1;strokeColor=none;fillColor=none;align=center;verticalAlign=middle;whiteSpace=wrap;rounded=0;" vertex="1" parent="1">
          <mxGeometry x="360" y="520" width="40" height="80" as="geometry" />
        </mxCell>
        <mxCell id="b4HhWst4_7GAa5L8suoH-49" value="Airport" style="text;html=1;strokeColor=none;fillColor=none;align=center;verticalAlign=middle;whiteSpace=wrap;rounded=0;" vertex="1" parent="1">
          <mxGeometry x="120" y="320" width="80" height="40" as="geometry" />
        </mxCell>
        <mxCell id="b4HhWst4_7GAa5L8suoH-50" value="Util" style="text;html=1;strokeColor=none;fillColor=none;align=center;verticalAlign=middle;whiteSpace=wrap;rounded=0;" vertex="1" parent="1">
          <mxGeometry x="560" y="200" width="80" height="40" as="geometry" />
        </mxCell>
        <mxCell id="b4HhWst4_7GAa5L8suoH-51" value="Util" style="text;html=1;strokeColor=none;fillColor=none;align=center;verticalAlign=middle;whiteSpace=wrap;rounded=0;" vertex="1" parent="1">
          <mxGeometry x="240" y="520" width="40" height="80" as="geometry" />
        </mxCell>
      </root>
    </mxGraphModel>
  </diagram>
</mxfile>
